<svg xmlns="http://www.w3.org/2000/svg" viewBox="0 0 30.8 30.79"><defs><style>.cls-1{fill:#fff;}.cls-2{fill:#f39519;}</style></defs><title>アセット 1</title><g id="レイヤー_2" data-name="レイヤー 2"><g id="レイヤー_1-2" data-name="レイヤー 1"><path class="cls-1" d="M30.8,25.94v4.85H0V25.85l5.51-.52c0-.11,0-.16,0-.22a16.19,16.19,0,0,1-.4-5c.17-1.1.36-2.19.52-3.29a1.39,1.39,0,0,1,1.62-1.3c.34,0,.41-.15.42-.46a5.37,5.37,0,0,1,1.4-3.74c.31-.32.64-.63,1-1L3.58,5.58l.07-.12,9.09,3.08c0-.27.09-.46.11-.66C13,6.93,13.07,6,13.21,5a.46.46,0,0,1,.32-.3c.79-.05,1.58-.1,2.38-.09,1.5,0,1.48.06,1.61,1.54.06.77.19,1.53.3,2.35L27,5.45l.07.12-6.53,4.75c.24.21.45.37.63.56a5.26,5.26,0,0,1,1.64,2.75c.08.48.14,1,.17,1.44,0,.32.15.43.46.44s.52.09.78.11a.55.55,0,0,1,.55.46,19.18,19.18,0,0,1,.56,2.12,22.42,22.42,0,0,1,.29,3.54A21.89,21.89,0,0,1,25.14,25c-.06.33,0,.41.34.43,1.1.07,2.2.15,3.29.26C29.45,25.72,30.13,25.84,30.8,25.94Z"/><path class="cls-2" d="M30.8,25.94c-.68-.1-1.35-.23-2-.29-1.09-.11-2.19-.19-3.29-.26-.31,0-.39-.1-.34-.43a21.89,21.89,0,0,0,.45-3.22,22.42,22.42,0,0,0-.29-3.54,19.18,19.18,0,0,0-.56-2.12.55.55,0,0,0-.55-.46c-.26,0-.52-.1-.78-.11S23,15.4,23,15.08c0-.48-.1-1-.17-1.44a5.26,5.26,0,0,0-1.64-2.75c-.18-.19-.39-.35-.63-.56L27,5.58,27,5.45,17.82,8.54c-.11-.82-.23-1.58-.3-2.35-.13-1.49-.11-1.51-1.61-1.54-.79,0-1.58,0-2.38.09a.46.46,0,0,0-.32.3c-.14.94-.25,1.89-.37,2.83,0,.2-.07.4-.11.66L3.65,5.45l-.07.12,6.48,4.74c-.37.36-.7.67-1,1A5.37,5.37,0,0,0,7.65,15c0,.31-.09.47-.42.46a1.39,1.39,0,0,0-1.62,1.3c-.16,1.1-.35,2.19-.52,3.29a16.19,16.19,0,0,0,.4,5c0,.06,0,.11,0,.22L0,25.85V0H30.8Z"/></g></g></svg>