<svg xmlns="http://www.w3.org/2000/svg" viewBox="0 0 180.25 72.75"><defs><style>.cls-1{fill:#0072c6;}.cls-2{fill:#fff;}</style></defs><title>アセット 1</title><g id="レイヤー_2" data-name="レイヤー 2"><g id="Layer_1" data-name="Layer 1"><rect class="cls-1" width="180.25" height="72.75"/><path class="cls-2" d="M28.22,37.72a23.49,23.49,0,0,0-.33,2.35l-.09.71h-.07a19.54,19.54,0,0,0-.48-2.95L24.57,26.18H19.41V45.31h3.05V35.17q0-2.63-.13-5.32h.11L23,33.23l2.92,12.07h3.36L32,33.06c.26-1.33.45-2.41.57-3.22h.08c-.09,1.93-.14,3.37-.14,4.33V45.31h3.16V26.18h-5Zm27.08,1.07h1.54a5.65,5.65,0,0,0,4.4-1.84,6.7,6.7,0,0,0,1.67-4.67,6.25,6.25,0,0,0-1.52-4.54,5.63,5.63,0,0,0-4.24-1.56H51.63V45.31h3.68Zm0-9.4h1.23a2.37,2.37,0,0,1,1.84.77,3.31,3.31,0,0,1,.71,2.31q0,3.15-2.51,3.15H55.31ZM41.68,45.31h3.94L50.5,26.18H46.79L44.14,38.72c-.12.7-.22,1.36-.28,2l-.07.51H43.7a17.8,17.8,0,0,0-.29-2.43L40.75,26.18H36.93Zm-1.9,22.78L8.06,36.37,39.76,4.66,71.49,36.39Z"/><path class="cls-2" d="M90.69,27.6V18.16q0-1.22.11-3.68h-.07q-.15,1-.49,2.73L87.89,27.6H85L82.56,17.36l-.44-2.87H82q.11,2.29.11,4.51v8.6H79.55V11.38h4.38l2.27,9.88a16.8,16.8,0,0,1,.41,2.5h.06l.08-.6q.15-1.37.28-2l2.14-9.79h4.21V27.6Z"/><path class="cls-2" d="M97.38,14.42a1.67,1.67,0,0,1-1.28-.53,1.8,1.8,0,0,1-.5-1.28,1.71,1.71,0,0,1,.51-1.3,1.94,1.94,0,0,1,2.58,0,1.75,1.75,0,0,1,.5,1.29,1.78,1.78,0,0,1-.5,1.3A1.76,1.76,0,0,1,97.38,14.42ZM95.92,27.6V16h3V27.6Z"/><path class="cls-2" d="M107.6,27.14a3.77,3.77,0,0,1-2.37.67A3.94,3.94,0,0,1,102,26.18a6.45,6.45,0,0,1-1.28-4.11,7.13,7.13,0,0,1,1.34-4.59,4.3,4.3,0,0,1,3.51-1.66,3.26,3.26,0,0,1,2,.49v2.59a2.07,2.07,0,0,0-1.56-.67,1.84,1.84,0,0,0-1.63,1,5,5,0,0,0-.61,2.64,5,5,0,0,0,.55,2.62,1.73,1.73,0,0,0,1.55.9,2.47,2.47,0,0,0,1.7-.64Z"/><path class="cls-2" d="M115.52,18.78a2.6,2.6,0,0,0-1-.22q-2.15,0-2.15,3.2V27.6h-3V16h3v1.92h0q.61-2.13,2.39-2.13a2.63,2.63,0,0,1,.73.11Z"/><path class="cls-2" d="M120.45,27.8A4.13,4.13,0,0,1,117,26.23a7.1,7.1,0,0,1-1.22-4.45A6.87,6.87,0,0,1,117,17.37a4.67,4.67,0,0,1,6.94,0,6.64,6.64,0,0,1,1.24,4.28A7.4,7.4,0,0,1,124,26.21,4.18,4.18,0,0,1,120.45,27.8Zm0-9.56q-1.66,0-1.66,3.52t1.66,3.61q1.65,0,1.65-3.72Q122.15,18.24,120.5,18.24Z"/><path class="cls-2" d="M126.71,27.23V24.66a4.42,4.42,0,0,0,2.57.86q1.37,0,1.37-1.14a1,1,0,0,0-.36-.76,7,7,0,0,0-1-.7,5.62,5.62,0,0,1-2.11-1.78,3.62,3.62,0,0,1-.49-1.83,3.25,3.25,0,0,1,1.07-2.53,4.25,4.25,0,0,1,3-1,6.43,6.43,0,0,1,2.38.43v2.51a4.52,4.52,0,0,0-2.1-.66q-1.37,0-1.37,1.14a1,1,0,0,0,.24.67,4.75,4.75,0,0,0,1.24.86,5.46,5.46,0,0,1,2,1.66,3.49,3.49,0,0,1,.49,1.86,3.32,3.32,0,0,1-1,2.54,4.29,4.29,0,0,1-3,1A5.74,5.74,0,0,1,126.71,27.23Z"/><path class="cls-2" d="M139.49,27.8A4.13,4.13,0,0,1,136,26.23a7.1,7.1,0,0,1-1.22-4.45,6.87,6.87,0,0,1,1.26-4.42,4.67,4.67,0,0,1,6.94,0,6.65,6.65,0,0,1,1.24,4.28A7.39,7.39,0,0,1,143,26.21,4.18,4.18,0,0,1,139.49,27.8Zm0-9.56q-1.66,0-1.66,3.52t1.66,3.61q1.65,0,1.65-3.72Q141.19,18.24,139.54,18.24Z"/><path class="cls-2" d="M151.19,12.81a2.45,2.45,0,0,0-.86-.14q-1.23,0-1.23,1.48V16H151v2.41H149.1V27.6h-2.94V18.42h-1.35V16h1.35V14.27a4.2,4.2,0,0,1,1-3,4.34,4.34,0,0,1,3.55-1l.5.1Z"/><path class="cls-2" d="M157.61,27.44a5.21,5.21,0,0,1-1.95.36q-3,0-3-3.54V18.42h-2.35V16h2.35V13.42l.24-.08q2.56-.85,2.71-.85V16h2v2.41h-2V24q0,1.36,1.07,1.36a1.94,1.94,0,0,0,.89-.2Z"/><path class="cls-2" d="M161.92,18.57a2.8,2.8,0,0,1-2-.78,2.61,2.61,0,0,1-.81-2,2.65,2.65,0,0,1,.82-2,3,3,0,0,1,4,0,2.78,2.78,0,0,1,0,3.93A2.78,2.78,0,0,1,161.92,18.57Zm0-5.12a2.33,2.33,0,0,0-2.38,2.37,2.27,2.27,0,0,0,.69,1.69,2.44,2.44,0,0,0,3.37,0,2.41,2.41,0,0,0,0-3.38A2.31,2.31,0,0,0,161.93,13.45Zm.61,4.07-.31-.88c-.12-.34-.29-.52-.5-.52h-.3v1.39h-.68V14h1.13a1.63,1.63,0,0,1,1,.26.84.84,0,0,1,.34.72q0,.71-.84.92v0a.87.87,0,0,1,.54.57l.42,1Zm-1.11-2.91v1h.48a.63.63,0,0,0,.43-.14.47.47,0,0,0,.16-.37q0-.5-.67-.49Z"/><path class="cls-2" d="M88,45V36.82q0-.7.05-1.28l.06-.92h-.06a7.22,7.22,0,0,1-.36,1.54L84.85,45h-.92L81,36.22a16.84,16.84,0,0,1-.35-1.65h-.07q.1,1.27.1,2.37v8H79.57V32.81h1.65l2.88,8.8A10.29,10.29,0,0,1,84.43,43h0l.33-1.44,2.82-8.72h1.59V45Z"/><path class="cls-2" d="M94.48,45.13a2.78,2.78,0,0,1-2.41-1.18,5.5,5.5,0,0,1-.84-3.25,5.58,5.58,0,0,1,.88-3.36,2.85,2.85,0,0,1,2.43-1.2,2.8,2.8,0,0,1,2.39,1.18,5.35,5.35,0,0,1,.86,3.22,5.81,5.81,0,0,1-.85,3.39A2.82,2.82,0,0,1,94.48,45.13Zm.05-7.92A1.65,1.65,0,0,0,93,38.1a5,5,0,0,0-.53,2.54q0,3.4,2,3.4t2-3.45A5,5,0,0,0,96,38.09,1.59,1.59,0,0,0,94.53,37.21Z"/><path class="cls-2" d="M99.17,44.68V43.45a3.38,3.38,0,0,0,1.89.65q1.54,0,1.54-1.36a1.21,1.21,0,0,0-.3-.79,4.36,4.36,0,0,0-1.13-.83,4.48,4.48,0,0,1-1.62-1.29,2.4,2.4,0,0,1-.36-1.28,2.23,2.23,0,0,1,.75-1.73,2.8,2.8,0,0,1,1.95-.68,3.87,3.87,0,0,1,1.68.35v1.18a3.31,3.31,0,0,0-1.65-.49,1.51,1.51,0,0,0-1.07.36,1.26,1.26,0,0,0-.39,1,1.32,1.32,0,0,0,.25.77,4,4,0,0,0,1.21.9,4.43,4.43,0,0,1,1.59,1.27,2.41,2.41,0,0,1,.35,1.29,2.25,2.25,0,0,1-.74,1.73,2.9,2.9,0,0,1-2,.68A3.9,3.9,0,0,1,99.17,44.68Z"/><path class="cls-2" d="M108.8,44.91a2.86,2.86,0,0,1-1.13.22q-1.89,0-1.89-2.24V37.33h-1.19v-1h1.19V34.13l1.23-.4v2.55h1.79v1H107v5.44q0,1.28,1,1.28a1.72,1.72,0,0,0,.8-.19Z"/><path class="cls-2" d="M117.39,45H116.1l-3.37-12.17h1.39L116.54,42a7.78,7.78,0,0,1,.22,1.26h0q0-.2.26-1.3l2.52-9.15h1.34Z"/><path class="cls-2" d="M125.8,45V43.67h0a2.26,2.26,0,0,1-2.21,1.46,2,2,0,0,1-1.55-.68,2.58,2.58,0,0,1-.59-1.74,2.64,2.64,0,0,1,2.33-2.78l2.05-.47v-.58q0-1.69-1.49-1.69a3.6,3.6,0,0,0-2.21.91V36.85a4.64,4.64,0,0,1,2.37-.71Q127,36.13,127,39v6Zm0-4.57-1.7.38a1.63,1.63,0,0,0-1.44,1.72,1.67,1.67,0,0,0,.37,1.14,1.23,1.23,0,0,0,1,.42,1.55,1.55,0,0,0,1.32-.67,2.91,2.91,0,0,0,.49-1.75Z"/><path class="cls-2" d="M129.15,45V32.11h1.23V45Z"/><path class="cls-2" d="M137.14,45V43.67h0a2.32,2.32,0,0,1-2.21,1.46q-2.38,0-2.37-2.77V36.29h1.23v5.77q0,2,1.57,2a1.66,1.66,0,0,0,1.32-.59,2.35,2.35,0,0,0,.51-1.58V36.29h1.23V45Z"/><path class="cls-2" d="M144.44,45V43.67h0a2.27,2.27,0,0,1-2.21,1.46,1.94,1.94,0,0,1-1.55-.68,2.57,2.57,0,0,1-.59-1.74,2.64,2.64,0,0,1,2.32-2.78l2.05-.47v-.58q0-1.69-1.49-1.69a3.6,3.6,0,0,0-2.21.91V36.85a4.65,4.65,0,0,1,2.38-.71q2.55,0,2.55,2.83v6Zm0-4.57-1.71.38a1.63,1.63,0,0,0-1.44,1.72,1.67,1.67,0,0,0,.37,1.14,1.22,1.22,0,0,0,1,.42,1.55,1.55,0,0,0,1.32-.67,2.91,2.91,0,0,0,.49-1.75Z"/><path class="cls-2" d="M149.06,43.86h0V45h-1.23V32.11H149v5.6h0a2.35,2.35,0,0,1,2.29-1.58,2.25,2.25,0,0,1,2,1.1,5.48,5.48,0,0,1,.7,3,7,7,0,0,1-.79,3.62A2.5,2.5,0,0,1,151,45.13,2,2,0,0,1,149.06,43.86ZM149,40.13v1.21a3.6,3.6,0,0,0,.47,1.95,1.47,1.47,0,0,0,1.31.76q2,0,2-3.72A4.61,4.61,0,0,0,152.3,38a1.48,1.48,0,0,0-1.33-.8,1.63,1.63,0,0,0-1.45.82A3.83,3.83,0,0,0,149,40.13Z"/><path class="cls-2" d="M155.81,45V32.11H157V45Z"/><path class="cls-2" d="M160.05,40.93q0,3.15,2.28,3.15a3.59,3.59,0,0,0,2-.7v1.16a4.29,4.29,0,0,1-2.17.58A3,3,0,0,1,159.66,44a5.6,5.6,0,0,1-.87-3.39,5.44,5.44,0,0,1,.87-3.21A2.76,2.76,0,0,1,162,36.13q2.82,0,2.82,4v.83Zm3.58-1q0-2.78-1.65-2.78a1.58,1.58,0,0,0-1.34.7,3.86,3.86,0,0,0-.58,2.08Z"/><path class="cls-2" d="M80.87,57.76v4.59h-1.3V50.19h2.78a3.2,3.2,0,0,1,2.45.92,3.77,3.77,0,0,1,.87,2.67,4.28,4.28,0,0,1-1,2.85,3.23,3.23,0,0,1-2.61,1.13Zm0-6.42V56.6H82a2.06,2.06,0,0,0,1.7-.73,3.06,3.06,0,0,0,.59-2q0-2.55-2.17-2.55Z"/><path class="cls-2" d="M91.3,54.88a2.2,2.2,0,0,0-.8-.17q-1.88,0-1.88,3.22v4.43H87.38V53.66h1.23v1.53h0a1.91,1.91,0,0,1,1.94-1.66,2,2,0,0,1,.7.1Z"/><path class="cls-2" d="M94.84,62.5a2.78,2.78,0,0,1-2.41-1.18,5.49,5.49,0,0,1-.84-3.25,5.58,5.58,0,0,1,.88-3.36,2.85,2.85,0,0,1,2.43-1.2,2.8,2.8,0,0,1,2.39,1.18,5.34,5.34,0,0,1,.86,3.22,5.81,5.81,0,0,1-.85,3.38A2.82,2.82,0,0,1,94.84,62.5Zm.05-7.92a1.65,1.65,0,0,0-1.49.89A5,5,0,0,0,92.87,58q0,3.4,2,3.4t2-3.45a5,5,0,0,0-.51-2.51A1.6,1.6,0,0,0,94.89,54.59Z"/><path class="cls-2" d="M103.17,50.53a2.14,2.14,0,0,0-.7-.1q-1.21,0-1.21,1.48v1.76H103v1h-1.74v7.65H100V54.71H98.79v-1H100V51.92a2.72,2.72,0,0,1,.62-1.88,2.23,2.23,0,0,1,1.75-.69,4.24,4.24,0,0,1,.76.09Z"/><path class="cls-2" d="M104.81,58.3q0,3.15,2.28,3.15a3.58,3.58,0,0,0,2-.7v1.16a4.29,4.29,0,0,1-2.17.58,3,3,0,0,1-2.52-1.15,5.61,5.61,0,0,1-.87-3.39,5.43,5.43,0,0,1,.87-3.21,2.76,2.76,0,0,1,2.38-1.24q2.82,0,2.82,4v.83Zm3.58-1q0-2.78-1.65-2.78a1.58,1.58,0,0,0-1.34.71,3.82,3.82,0,0,0-.58,2.08Z"/><path class="cls-2" d="M110.86,62.05V60.82a3.37,3.37,0,0,0,1.89.65q1.54,0,1.54-1.36a1.21,1.21,0,0,0-.3-.79,4.36,4.36,0,0,0-1.13-.83,4.49,4.49,0,0,1-1.62-1.29,2.4,2.4,0,0,1-.36-1.28,2.23,2.23,0,0,1,.75-1.73,2.8,2.8,0,0,1,1.95-.67,3.85,3.85,0,0,1,1.68.35V55a3.31,3.31,0,0,0-1.65-.49,1.51,1.51,0,0,0-1.07.36,1.25,1.25,0,0,0-.39,1,1.31,1.31,0,0,0,.26.77,4,4,0,0,0,1.2.9,4.43,4.43,0,0,1,1.59,1.27,2.4,2.4,0,0,1,.35,1.29,2.25,2.25,0,0,1-.74,1.73,2.89,2.89,0,0,1-2,.68A3.89,3.89,0,0,1,110.86,62.05Z"/><path class="cls-2" d="M116.88,62.05V60.82a3.38,3.38,0,0,0,1.89.65q1.54,0,1.54-1.36a1.21,1.21,0,0,0-.3-.79,4.33,4.33,0,0,0-1.13-.83,4.51,4.51,0,0,1-1.62-1.29,2.4,2.4,0,0,1-.36-1.28,2.23,2.23,0,0,1,.75-1.73,2.8,2.8,0,0,1,1.95-.67,3.85,3.85,0,0,1,1.68.35V55a3.3,3.3,0,0,0-1.65-.49,1.51,1.51,0,0,0-1.07.36,1.25,1.25,0,0,0-.39,1,1.31,1.31,0,0,0,.26.77,4,4,0,0,0,1.2.9,4.43,4.43,0,0,1,1.59,1.27,2.4,2.4,0,0,1,.35,1.29,2.25,2.25,0,0,1-.74,1.73,2.89,2.89,0,0,1-2,.68A3.88,3.88,0,0,1,116.88,62.05Z"/><path class="cls-2" d="M123.88,51.79a.86.86,0,0,1-.87-.87.79.79,0,0,1,.26-.62.89.89,0,0,1,.62-.23.87.87,0,0,1,.62.23.81.81,0,0,1,.25.62.86.86,0,0,1-.24.62A.83.83,0,0,1,123.88,51.79Zm-.63,10.56V53.66h1.23v8.69Z"/><path class="cls-2" d="M129.48,62.5a2.78,2.78,0,0,1-2.4-1.18,5.49,5.49,0,0,1-.85-3.25,5.59,5.59,0,0,1,.88-3.36,2.86,2.86,0,0,1,2.44-1.2,2.8,2.8,0,0,1,2.39,1.18,5.34,5.34,0,0,1,.86,3.22,5.81,5.81,0,0,1-.85,3.38A2.83,2.83,0,0,1,129.48,62.5Zm.05-7.92a1.65,1.65,0,0,0-1.49.89,5,5,0,0,0-.53,2.54q0,3.4,2,3.4t2-3.45a5,5,0,0,0-.51-2.51A1.6,1.6,0,0,0,129.54,54.59Z"/><path class="cls-2" d="M139.15,62.35V56.58q0-2-1.57-2a1.64,1.64,0,0,0-1.3.58,2.35,2.35,0,0,0-.5,1.59v5.59h-1.23V53.66h1.23V55h0a2.25,2.25,0,0,1,2.2-1.46q2.36,0,2.36,2.77v6.07Z"/><path class="cls-2" d="M146.38,62.35V61h0a2.27,2.27,0,0,1-2.21,1.46,1.94,1.94,0,0,1-1.55-.68,2.56,2.56,0,0,1-.59-1.74,2.64,2.64,0,0,1,2.32-2.78l2.05-.47v-.58q0-1.69-1.49-1.69a3.61,3.61,0,0,0-2.21.91V54.22a4.65,4.65,0,0,1,2.37-.71q2.55,0,2.55,2.83v6Zm0-4.57-1.71.38a1.63,1.63,0,0,0-1.44,1.72A1.67,1.67,0,0,0,143.6,61a1.23,1.23,0,0,0,1,.42,1.54,1.54,0,0,0,1.32-.67,2.89,2.89,0,0,0,.49-1.75Z"/><path class="cls-2" d="M149.73,62.35V49.49H151V62.35Z"/></g></g></svg>