<svg xmlns="http://www.w3.org/2000/svg" xmlns:xlink="http://www.w3.org/1999/xlink" viewBox="0 0 72 114"><defs><style>.cls-1{fill:none;}.cls-2{fill:#0072c6;}.cls-3{clip-path:url(#clip-path);}.cls-4{fill:#fff;}</style><clipPath id="clip-path"><rect class="cls-1" width="72" height="114"/></clipPath></defs><title>アセット 1</title><g id="レイヤー_2" data-name="レイヤー 2"><g id="Layer_1" data-name="Layer 1"><rect class="cls-2" width="72" height="114"/><g class="cls-3"><path class="cls-4" d="M25.06,36.51a22.34,22.34,0,0,0-.31,2.23l-.09.67h-.06a18.51,18.51,0,0,0-.46-2.79l-2.54-11H16.7V43.7h2.89V34.09q0-2.49-.13-5h.1l.49,3.21L22.83,43.7H26l2.64-11.6c.25-1.26.43-2.28.54-3h.08c-.09,1.83-.13,3.19-.13,4.11V43.7h3V25.57h-4.7Zm25.67,1h1.46a5.36,5.36,0,0,0,4.17-1.74,6.35,6.35,0,0,0,1.58-4.43,5.92,5.92,0,0,0-1.44-4.3,5.34,5.34,0,0,0-4-1.48H47.23V43.7h3.49Zm0-8.91h1.16a2.25,2.25,0,0,1,1.74.73,3.13,3.13,0,0,1,.67,2.19q0,3-2.38,3h-1.2ZM37.81,43.7h3.73l4.63-18.13H42.65L40.14,37.45c-.12.66-.21,1.29-.27,1.88l-.06.48h-.09a16.81,16.81,0,0,0-.28-2.3L36.92,25.57H33.31ZM36,65.29,5.94,35.23l30-30L66.06,35.25Z"/><path class="cls-4" d="M60.75,97.74H59.9v8.88h.85Zm-3.16,6.59a2,2,0,0,1-.34,1.21,1.07,1.07,0,0,1-.91.46.85.85,0,0,1-.67-.29,1.15,1.15,0,0,1-.26-.79,1.13,1.13,0,0,1,1-1.19l1.18-.26Zm.85,2.29v-4.15q0-1.95-1.76-2A3.21,3.21,0,0,0,55,101v.86a2.49,2.49,0,0,1,1.52-.63q1,0,1,1.17v.4l-1.42.32a1.82,1.82,0,0,0-1.61,1.92,1.77,1.77,0,0,0,.41,1.2,1.34,1.34,0,0,0,1.07.47,1.57,1.57,0,0,0,1.52-1h0v.9Zm-5,0v-4.19q0-1.92-1.63-1.92a1.56,1.56,0,0,0-1.52,1h0v-.9h-.85v6h.85v-3.86a1.62,1.62,0,0,1,.35-1.1,1.13,1.13,0,0,1,.9-.4q1.09,0,1.09,1.38v4ZM47,101.87a3.49,3.49,0,0,1,.35,1.73Q47.31,106,46,106t-1.39-2.35a3.46,3.46,0,0,1,.37-1.76,1.14,1.14,0,0,1,1-.62,1.1,1.1,0,0,1,1,.61m.66,4a4,4,0,0,0,.59-2.34,3.69,3.69,0,0,0-.59-2.22,1.93,1.93,0,0,0-1.65-.81,2,2,0,0,0-1.68.83,3.85,3.85,0,0,0-.61,2.32,3.8,3.8,0,0,0,.58,2.24,1.92,1.92,0,0,0,1.66.82,2,2,0,0,0,1.7-.84m-5.15-5.27h-.85v6h.85Zm0-1.47a.6.6,0,0,0,.17-.43.55.55,0,0,0-.17-.42.6.6,0,0,0-.42-.16.61.61,0,0,0-.42.16.55.55,0,0,0-.18.42.6.6,0,0,0,.6.6.57.57,0,0,0,.43-.17m-4,7.57a2,2,0,0,0,1.41-.47,1.55,1.55,0,0,0,.51-1.19,1.66,1.66,0,0,0-.24-.89,3.06,3.06,0,0,0-1.1-.88,2.78,2.78,0,0,1-.83-.62.9.9,0,0,1-.18-.53.86.86,0,0,1,.27-.66,1,1,0,0,1,.74-.25,2.3,2.3,0,0,1,1.14.34v-.81a2.67,2.67,0,0,0-1.16-.24,1.94,1.94,0,0,0-1.34.47,1.54,1.54,0,0,0-.52,1.2,1.65,1.65,0,0,0,.25.88,3.09,3.09,0,0,0,1.12.89,3,3,0,0,1,.78.57.83.83,0,0,1,.21.54q0,.94-1.06.94a2.33,2.33,0,0,1-1.31-.45v.85a2.69,2.69,0,0,0,1.32.31m-4.15,0a2,2,0,0,0,1.41-.47,1.55,1.55,0,0,0,.51-1.19,1.67,1.67,0,0,0-.24-.89,3.07,3.07,0,0,0-1.1-.88,2.82,2.82,0,0,1-.83-.62.91.91,0,0,1-.18-.53.87.87,0,0,1,.27-.66,1,1,0,0,1,.74-.25,2.29,2.29,0,0,1,1.14.34v-.81a2.67,2.67,0,0,0-1.16-.24,1.94,1.94,0,0,0-1.34.47,1.54,1.54,0,0,0-.52,1.2,1.66,1.66,0,0,0,.25.88,3.09,3.09,0,0,0,1.12.89,3,3,0,0,1,.78.57.83.83,0,0,1,.21.54q0,.94-1.06.94a2.33,2.33,0,0,1-1.31-.45v.85a2.68,2.68,0,0,0,1.32.31m-5.48-3.59a2.65,2.65,0,0,1,.4-1.44,1.1,1.1,0,0,1,.92-.49q1.14,0,1.14,1.92Zm3.3.69v-.57q0-2.74-1.95-2.74a1.9,1.9,0,0,0-1.64.86,3.75,3.75,0,0,0-.6,2.21,3.87,3.87,0,0,0,.6,2.34,2,2,0,0,0,1.74.8,3,3,0,0,0,1.5-.41v-.8a2.48,2.48,0,0,1-1.39.48q-1.58,0-1.58-2.17Zm-4.45-6.12a3,3,0,0,0-.53-.06,1.54,1.54,0,0,0-1.21.48,1.88,1.88,0,0,0-.42,1.3v1.2h-.86v.72h.86v5.28h.85v-5.28h1.2v-.72h-1.2V99.41c0-.68.28-1,.83-1a1.49,1.49,0,0,1,.48.07ZM23,101.87a3.49,3.49,0,0,1,.35,1.73Q23.38,106,22,106t-1.4-2.35a3.46,3.46,0,0,1,.37-1.76,1.14,1.14,0,0,1,1-.62,1.1,1.1,0,0,1,1,.61m.67,4a4,4,0,0,0,.59-2.34,3.7,3.7,0,0,0-.59-2.22,1.93,1.93,0,0,0-1.65-.81,2,2,0,0,0-1.68.83,3.86,3.86,0,0,0-.61,2.32,3.79,3.79,0,0,0,.58,2.24,1.92,1.92,0,0,0,1.66.82,2,2,0,0,0,1.7-.84m-4.15-5.29a1.39,1.39,0,0,0-.48-.07,1.32,1.32,0,0,0-1.34,1.15h0v-1.06h-.85v6h.85v-3.06q0-2.22,1.3-2.22a1.54,1.54,0,0,1,.55.12ZM13.22,99q1.5,0,1.5,1.76a2.11,2.11,0,0,1-.41,1.36,1.42,1.42,0,0,1-1.17.51h-.8V99Zm0,4.44a2.23,2.23,0,0,0,1.8-.78,3,3,0,0,0,.66-2,2.6,2.6,0,0,0-.6-1.85,2.21,2.21,0,0,0-1.69-.64H11.45v8.4h.9v-3.17Z"/><path class="cls-4" d="M62.45,91.14a2.66,2.66,0,0,1,.4-1.44,1.09,1.09,0,0,1,.92-.49q1.14,0,1.14,1.92Zm3.31.68v-.57q0-2.74-1.95-2.74a1.91,1.91,0,0,0-1.64.86,3.76,3.76,0,0,0-.6,2.21,3.87,3.87,0,0,0,.6,2.34,2,2,0,0,0,1.74.8,3,3,0,0,0,1.5-.41v-.8A2.47,2.47,0,0,1,64,94q-1.58,0-1.58-2.17Zm-5.4-6.09h-.85v8.88h.85Zm-5.2,4.09a1.13,1.13,0,0,1,1-.57,1,1,0,0,1,.92.55,3.17,3.17,0,0,1,.33,1.6Q57.41,94,56,94a1,1,0,0,1-.91-.52,2.5,2.5,0,0,1-.33-1.35v-.84a2.65,2.65,0,0,1,.36-1.45m1,4.9a1.74,1.74,0,0,0,1.56-.89,4.81,4.81,0,0,0,.54-2.5,3.78,3.78,0,0,0-.49-2.06,1.55,1.55,0,0,0-1.38-.76,1.62,1.62,0,0,0-1.58,1.09h0V85.74H54v8.88h.85v-.77h0a1.4,1.4,0,0,0,1.34.87m-4.54-2.4a2,2,0,0,1-.34,1.21,1.07,1.07,0,0,1-.91.46.85.85,0,0,1-.67-.29,1.16,1.16,0,0,1-.26-.79,1.12,1.12,0,0,1,1-1.19l1.18-.26Zm.85,2.29V90.47q0-2-1.76-2A3.21,3.21,0,0,0,49.1,89v.86a2.49,2.49,0,0,1,1.52-.63q1,0,1,1.17v.4l-1.42.32a1.82,1.82,0,0,0-1.61,1.92,1.78,1.78,0,0,0,.41,1.2,1.34,1.34,0,0,0,1.07.47,1.56,1.56,0,0,0,1.52-1h0v.9Zm-5,0v-6h-.85v3.86a1.61,1.61,0,0,1-.35,1.09,1.14,1.14,0,0,1-.91.41q-1.08,0-1.08-1.38v-4h-.85v4.19q0,1.91,1.64,1.92a1.6,1.6,0,0,0,1.53-1h0v.9Zm-5.51-8.88H41.1v8.88h.85Zm-3.16,6.59a2,2,0,0,1-.34,1.21,1.07,1.07,0,0,1-.91.46.84.84,0,0,1-.67-.29,1.15,1.15,0,0,1-.26-.79,1.12,1.12,0,0,1,1-1.19l1.18-.26Zm.85,2.29V90.47q0-2-1.76-2a3.21,3.21,0,0,0-1.64.49v.86a2.48,2.48,0,0,1,1.52-.63q1,0,1,1.17v.4l-1.42.32a1.82,1.82,0,0,0-1.61,1.92,1.77,1.77,0,0,0,.41,1.2,1.35,1.35,0,0,0,1.07.47,1.56,1.56,0,0,0,1.52-1h0v.9Zm-4.23-8.4h-.93l-1.74,6.32q-.17.75-.18.9h0a5.4,5.4,0,0,0-.15-.87l-1.67-6.34h-1l2.33,8.4H33ZM27,93.86a1.19,1.19,0,0,1-.55.13q-.69,0-.69-.88V89.34H27v-.72H25.81V86.86l-.85.28v1.49h-.82v.72H25v3.84q0,1.55,1.31,1.55a2,2,0,0,0,.78-.15Zm-5.33.87a2,2,0,0,0,1.41-.47,1.55,1.55,0,0,0,.51-1.19,1.66,1.66,0,0,0-.24-.89,3.07,3.07,0,0,0-1.1-.88,2.77,2.77,0,0,1-.83-.62.9.9,0,0,1-.18-.53.86.86,0,0,1,.27-.66,1,1,0,0,1,.74-.25,2.29,2.29,0,0,1,1.14.34v-.81a2.67,2.67,0,0,0-1.16-.24,1.94,1.94,0,0,0-1.34.47,1.54,1.54,0,0,0-.52,1.2,1.66,1.66,0,0,0,.25.89,3.12,3.12,0,0,0,1.12.89,3,3,0,0,1,.78.57.83.83,0,0,1,.21.54q0,.94-1.06.94a2.34,2.34,0,0,1-1.31-.45v.85a2.68,2.68,0,0,0,1.32.31m-3.52-4.86a3.49,3.49,0,0,1,.35,1.73q0,2.38-1.35,2.38t-1.39-2.35a3.47,3.47,0,0,1,.37-1.76,1.14,1.14,0,0,1,1-.62,1.1,1.1,0,0,1,1,.61m.66,4a4,4,0,0,0,.59-2.34,3.69,3.69,0,0,0-.6-2.22,1.93,1.93,0,0,0-1.65-.81,2,2,0,0,0-1.68.83,3.85,3.85,0,0,0-.61,2.32,3.79,3.79,0,0,0,.58,2.24,1.92,1.92,0,0,0,1.66.82,2,2,0,0,0,1.7-.84m-5.34.73v-8.4h-1.1l-1.95,6-.23,1h0A7.16,7.16,0,0,0,10,92.3L8,86.22H6.86v8.4h.79V89.07q0-.76-.07-1.63h0q.17.94.24,1.14l2,6h.63l2-6.09a4.94,4.94,0,0,0,.25-1.06h0l0,.64c0,.27,0,.56,0,.89v5.63Z"/><path class="cls-4" d="M63.4,72.17c.25,0,.38.09.38.28a.27.27,0,0,1-.09.21.36.36,0,0,1-.24.08h-.27v-.57Zm.86,1.65L64,73.27a.49.49,0,0,0-.31-.33h0q.48-.12.48-.52A.48.48,0,0,0,64,72a.93.93,0,0,0-.57-.15h-.64v2h.38V73h.17c.12,0,.22.1.29.29l.18.5Zm.16-1.92a1.35,1.35,0,0,1-1,2.3,1.32,1.32,0,0,1-1-.38,1.29,1.29,0,0,1-.39-1,1.36,1.36,0,0,1,2.31-1M64.59,74a1.57,1.57,0,0,0,0-2.23,1.68,1.68,0,0,0-2.29,0,1.5,1.5,0,0,0-.47,1.11A1.48,1.48,0,0,0,62.31,74a1.59,1.59,0,0,0,1.14.44A1.57,1.57,0,0,0,64.59,74M60.74,78.9a1.29,1.29,0,0,1-.6.14q-.72,0-.72-.92V74.36h1.33V72.74H59.42V70.37q-.1,0-1.82.57l-.16.05v1.74h-1v1.62h1v3.93q0,2.38,2,2.38a3.48,3.48,0,0,0,1.31-.24Zm-4-9.94-.33-.07a2.45,2.45,0,0,0-.46,0,2.49,2.49,0,0,0-1.93.72,2.82,2.82,0,0,0-.66,2v1.17h-.91v1.62h.91v6.18h2V74.36h1.26V72.74H55.33V71.49q0-1,.83-1a1.66,1.66,0,0,1,.58.09Zm-6.89,7.57q0,2.51-1.11,2.51t-1.12-2.43q0-2.37,1.12-2.37t1.11,2.29m1.23,3.07a5,5,0,0,0,.83-3.08,4.47,4.47,0,0,0-.83-2.88,3.14,3.14,0,0,0-4.67,0,4.62,4.62,0,0,0-.85,3,4.78,4.78,0,0,0,.82,3,2.78,2.78,0,0,0,2.33,1.06,2.82,2.82,0,0,0,2.37-1.07M42,80.68A2.88,2.88,0,0,0,44,80a2.23,2.23,0,0,0,.7-1.71,2.36,2.36,0,0,0-.33-1.25A3.67,3.67,0,0,0,43,75.94a3.27,3.27,0,0,1-.83-.58.71.71,0,0,1-.16-.45q0-.77.92-.77a3,3,0,0,1,1.42.44V72.89a4.37,4.37,0,0,0-1.61-.29,2.86,2.86,0,0,0-2,.65,2.18,2.18,0,0,0-.72,1.7,2.43,2.43,0,0,0,.33,1.23,3.75,3.75,0,0,0,1.42,1.2,4.68,4.68,0,0,1,.69.47.65.65,0,0,1,.24.51c0,.51-.31.77-.92.77a3,3,0,0,1-1.73-.58v1.73a3.88,3.88,0,0,0,1.87.39m-5.09-4.14q0,2.51-1.11,2.51t-1.12-2.43q0-2.37,1.12-2.37t1.11,2.29M38.1,79.6a5,5,0,0,0,.83-3.08,4.47,4.47,0,0,0-.84-2.88,3.14,3.14,0,0,0-4.67,0,4.63,4.63,0,0,0-.85,3,4.78,4.78,0,0,0,.82,3,2.78,2.78,0,0,0,2.33,1.06A2.81,2.81,0,0,0,38.1,79.6M32,72.68a1.76,1.76,0,0,0-.5-.08q-1.2,0-1.61,1.43h0V72.74h-2v7.8h2V76.61q0-2.16,1.45-2.16a1.75,1.75,0,0,1,.69.14Zm-5.49,5.93a1.66,1.66,0,0,1-1.14.44,1.17,1.17,0,0,1-1-.61,4.21,4.21,0,0,1,0-3.54,1.24,1.24,0,0,1,1.1-.67,1.39,1.39,0,0,1,1.05.45V72.93a2.2,2.2,0,0,0-1.36-.33,2.89,2.89,0,0,0-2.36,1.12,4.79,4.79,0,0,0-.9,3.09,4.33,4.33,0,0,0,.86,2.77,2.65,2.65,0,0,0,2.17,1.09,2.54,2.54,0,0,0,1.59-.45Zm-5.88-5.86h-2v7.8h2Zm-.12-1.42a1.21,1.21,0,0,0,.34-.88,1.18,1.18,0,0,0-.34-.87,1.2,1.2,0,0,0-.88-.33,1.19,1.19,0,0,0-.85.33,1.15,1.15,0,0,0-.34.88,1.22,1.22,0,0,0,.34.86,1.12,1.12,0,0,0,.86.36,1.18,1.18,0,0,0,.88-.34m-3.58,9.22V69.62H14.11l-1.44,6.59q-.09.42-.19,1.34l-.05.4h0a11.24,11.24,0,0,0-.27-1.68l-1.53-6.65H7.64V80.54H9.38V74.75q0-1.5-.08-3h.06l.3,1.93,1.67,6.89h1.92l1.59-7q.23-1.14.33-1.84h0q-.08,1.66-.08,2.48v6.35Z"/></g></g></g></svg>